<?xml version="1.0" standalone="no"?>
<!DOCTYPE svg PUBLIC "-//W3C//DTD SVG 20010904//EN"
 "http://www.w3.org/TR/2001/REC-SVG-20010904/DTD/svg10.dtd">
<svg version="1.0" xmlns="http://www.w3.org/2000/svg"
 width="512.000000pt" height="512.000000pt" viewBox="0 0 512.000000 512.000000"
 preserveAspectRatio="xMidYMid meet">

<g transform="translate(0.000000,512.000000) scale(0.100000,-0.100000)"
fill="#000000" stroke="none">
<path d="M231 4037 c-13 -6 -34 -25 -45 -40 -20 -27 -21 -40 -21 -276 0 -349
-18 -331 347 -331 274 0 364 -13 499 -69 168 -70 336 -217 429 -374 25 -42 47
-76 50 -76 3 -1 40 61 82 137 l78 137 -453 453 -452 452 -245 0 c-175 0 -252
-4 -269 -13z"/>
<path d="M1650 2533 c-124 -212 -246 -414 -271 -447 -115 -153 -276 -262 -475
-322 -85 -26 -102 -27 -374 -33 -318 -7 -327 -9 -356 -76 -22 -53 -20 -474 2
-521 31 -65 38 -66 408 -61 290 4 343 7 427 26 301 66 527 188 734 396 136
135 191 217 430 633 l179 313 -240 240 -239 239 -225 -387z"/>
<path d="M2405 1918 c-94 -160 -171 -294 -173 -298 -1 -4 34 -46 79 -94 155
-165 384 -312 595 -380 170 -55 258 -67 549 -73 l270 -5 -425 424 c-234 233
-450 446 -480 474 -30 28 -95 94 -143 147 -49 53 -92 97 -95 97 -4 0 -84 -131
-177 -292z"/>
<path d="M3930 782 c0 -131 40 -178 117 -137 65 35 64 38 -30 133 l-87 87 0
-83z"/>
</g>
</svg>
